<svg width="24" height="24" viewBox="0 0 24 24" fill="none" xmlns="http://www.w3.org/2000/svg">
<path d="M14.2609 4.06021C14.3962 4.10992 14.5263 4.16385 14.6543 4.22096C14.8605 4.13318 15.0921 4.08876 15.3481 4.08876C15.8779 4.08876 16.3126 4.31826 16.6807 4.7762C17.3004 4.56997 17.5987 4.13424 17.5987 3.46795C17.5987 2.66417 16.9567 2 15.9689 2C14.9356 2 14.0568 2.69273 13.6083 3.8508C13.9224 3.93118 14.227 4.04752 14.2609 4.06021Z" fill="white"/>
<path d="M13.7184 14.7441C13.0754 14.6289 11.9733 14.5146 11.3991 14.4226C11.1008 14.3771 10.8015 14.3306 10.5033 14.2619C9.92899 14.1466 9.65402 13.8949 9.65402 13.5956C9.65402 13.09 10.2516 12.8373 11.4223 12.8373H11.5598C13.0299 12.8373 14.2461 12.4703 15.2107 11.712C16.1752 10.9537 16.6574 9.89821 16.6574 8.5889C16.6574 6.75184 15.6242 5.48906 13.9479 4.86825C13.9479 4.86825 13.6528 4.75403 13.3736 4.68423C12.8226 4.54674 12.225 4.478 11.582 4.478C10.0897 4.478 8.87245 4.84499 7.88465 5.58002C6.89685 6.29178 6.41458 7.30179 6.41458 8.61111C6.41458 10.6089 7.72389 12.0557 9.7217 12.6067C7.90791 12.813 6.78262 13.6167 6.78262 14.8806C6.78262 15.6389 7.17288 16.1899 7.97666 16.5336C8.78043 16.8784 9.35471 16.9704 10.5255 17.1534C11.4667 17.2686 12.1098 17.3596 12.4313 17.4294C14.0621 17.7509 14.8881 18.3939 14.8881 19.3585C14.8881 20.6678 13.5333 21.4937 11.7883 21.4937C9.88246 21.4937 9.00994 20.5059 8.94013 19.2432C8.89466 18.7376 8.94013 18.2332 9.07762 17.7276C7.07981 17.7509 6 18.4394 6 19.6112C6 20.4605 6.50554 21.0813 7.51554 21.517C8.54882 21.9538 9.8116 22.16 11.3049 22.16C15.4158 22.16 17.5511 20.507 17.5511 18.0269C17.5532 16.008 16.1752 15.1809 13.7184 14.7441ZM10.297 5.97239C10.5498 5.39811 10.9855 5.12313 11.5598 5.12313C12.1341 5.12313 12.5476 5.39917 12.8004 5.97239C13.0531 6.5234 13.1906 7.39592 13.1906 8.61322C13.1906 11.0013 12.6396 12.1953 11.5598 12.1953C10.389 12.1953 9.90678 11.0246 9.90678 8.61322C9.90678 7.39592 10.0443 6.5234 10.297 5.97239Z" fill="white"/>
</svg>
